<svg width="246" height="246" viewBox="0 0 246 246" fill="none" xmlns="http://www.w3.org/2000/svg">
<g clip-path="url(#clip0_417_10960)">
<rect width="245.272" height="245.272" rx="122.636" fill="#0E0E0E"/>
<g clip-path="url(#clip1_417_10960)">
<rect x="6.13281" y="122.636" width="61.318" height="61.318" transform="rotate(-45 6.13281 122.636)" fill="#E54614"/>
<path d="M-11.1133 155.594V140.264H67.4504C67.4504 148.73 60.5872 155.594 52.1209 155.594H-11.1133Z" fill="black"/>
<path d="M-3.06445 138.731V126.468H59.4033C59.4033 133.241 53.9127 138.731 47.1397 138.731H-3.06445Z" fill="black"/>
<path d="M4.98242 124.936V115.738H51.3542C51.3542 120.818 47.2362 124.936 42.1565 124.936H4.98242Z" fill="black"/>
<path d="M10.3477 114.204V107.306H45.9888C45.9888 111.116 42.9003 114.204 39.0905 114.204H10.3477Z" fill="black"/>
<path d="M14.5645 105.773V100.408H41.7743C41.7743 103.371 39.3722 105.773 36.409 105.773H14.5645Z" fill="black"/>
<path d="M18.3965 98.875V95.0426H37.9416C37.9416 97.1592 36.2258 98.875 34.1092 98.875H18.3965Z" fill="black"/>
</g>
<path d="M99.1353 136.462C98.7306 136.462 98.3995 136.333 98.1419 136.076C97.8844 135.818 97.7556 135.487 97.7556 135.082V99.2112C97.7556 98.8065 97.8844 98.4754 98.1419 98.2179C98.3995 97.9603 98.7306 97.8316 99.1353 97.8316H124.907C125.312 97.8316 125.643 97.9603 125.901 98.2179C126.158 98.4754 126.287 98.8065 126.287 99.2112V104.399C126.287 104.803 126.158 105.135 125.901 105.392C125.643 105.65 125.312 105.778 124.907 105.778H107.303V113.229H123.693C124.098 113.229 124.429 113.376 124.686 113.67C124.944 113.928 125.073 114.259 125.073 114.663V119.465C125.073 119.832 124.944 120.164 124.686 120.458C124.429 120.715 124.098 120.844 123.693 120.844H107.303V128.515H125.349C125.753 128.515 126.085 128.644 126.342 128.901C126.6 129.159 126.728 129.49 126.728 129.895V135.082C126.728 135.487 126.6 135.818 126.342 136.076C126.085 136.333 125.753 136.462 125.349 136.462H99.1353ZM134.878 136.462C134.51 136.462 134.216 136.352 133.995 136.131C133.774 135.91 133.664 135.616 133.664 135.248V98.4938C133.664 98.1259 133.774 97.8316 133.995 97.6108C134.216 97.3901 134.51 97.2797 134.878 97.2797H135.816C136.184 97.2797 136.478 97.3901 136.699 97.6108C136.92 97.8316 137.03 98.1259 137.03 98.4938V135.248C137.03 135.616 136.92 135.91 136.699 136.131C136.478 136.352 136.184 136.462 135.816 136.462H134.878ZM156.655 137.014C153.086 137.014 150.253 135.855 148.156 133.537C146.059 131.182 144.863 128.11 144.569 124.321C144.532 123.769 144.514 123.033 144.514 122.113C144.514 121.194 144.532 120.458 144.569 119.906C144.753 117.404 145.342 115.197 146.335 113.284C147.328 111.371 148.69 109.881 150.419 108.814C152.185 107.747 154.263 107.213 156.655 107.213C159.23 107.213 161.419 107.783 163.222 108.924C165.025 110.065 166.404 111.702 167.361 113.836C168.354 115.969 168.851 118.508 168.851 121.451V122.279C168.851 122.647 168.722 122.941 168.465 123.162C168.244 123.383 167.95 123.493 167.582 123.493H147.935C147.935 123.493 147.935 123.567 147.935 123.714C147.935 123.861 147.935 123.971 147.935 124.045C148.009 125.701 148.395 127.283 149.094 128.791C149.793 130.263 150.787 131.477 152.074 132.433C153.362 133.353 154.889 133.813 156.655 133.813C158.237 133.813 159.543 133.574 160.573 133.096C161.64 132.617 162.486 132.102 163.112 131.55C163.737 130.962 164.142 130.52 164.326 130.226C164.657 129.748 164.914 129.472 165.098 129.398C165.282 129.288 165.577 129.233 165.981 129.233H166.864C167.195 129.233 167.471 129.343 167.692 129.564C167.95 129.748 168.06 130.005 168.023 130.336C167.986 130.851 167.692 131.495 167.14 132.268C166.625 133.004 165.871 133.739 164.878 134.475C163.921 135.211 162.744 135.818 161.346 136.296C159.948 136.775 158.384 137.014 156.655 137.014ZM147.935 120.403H165.485V120.182C165.485 118.342 165.135 116.687 164.436 115.215C163.737 113.744 162.725 112.585 161.401 111.738C160.076 110.856 158.494 110.414 156.655 110.414C154.815 110.414 153.233 110.856 151.909 111.738C150.621 112.585 149.628 113.744 148.929 115.215C148.267 116.687 147.935 118.342 147.935 120.182V120.403ZM185.092 136.462C184.503 136.462 184.044 136.333 183.712 136.076C183.418 135.818 183.179 135.487 182.995 135.082L172.841 109.476C172.767 109.255 172.73 109.053 172.73 108.869C172.73 108.574 172.841 108.317 173.062 108.096C173.282 107.875 173.54 107.765 173.834 107.765H174.993C175.361 107.765 175.637 107.875 175.821 108.096C176.042 108.28 176.17 108.446 176.207 108.593L185.534 132.433L194.86 108.593C194.934 108.446 195.062 108.28 195.246 108.096C195.43 107.875 195.706 107.765 196.074 107.765H197.233C197.527 107.765 197.785 107.875 198.006 108.096C198.226 108.317 198.337 108.574 198.337 108.869C198.337 109.053 198.3 109.255 198.226 109.476L188.072 135.082C187.925 135.487 187.686 135.818 187.355 136.076C187.024 136.333 186.564 136.462 185.975 136.462H185.092ZM211.503 137.014C209.737 137.014 208.1 136.646 206.591 135.91C205.12 135.174 203.924 134.199 203.004 132.985C202.085 131.734 201.625 130.336 201.625 128.791C201.625 126.289 202.636 124.284 204.66 122.776C206.683 121.267 209.314 120.292 212.552 119.851L221.271 118.637V116.705C221.271 114.755 220.664 113.229 219.45 112.125C218.273 110.984 216.378 110.414 213.766 110.414C211.853 110.414 210.307 110.8 209.13 111.573C207.953 112.309 207.143 113.284 206.702 114.498C206.518 115.05 206.168 115.326 205.653 115.326H204.77C204.329 115.326 204.016 115.215 203.832 114.994C203.648 114.737 203.556 114.443 203.556 114.111C203.556 113.596 203.74 112.953 204.108 112.18C204.513 111.407 205.12 110.653 205.929 109.917C206.739 109.145 207.787 108.501 209.075 107.986C210.363 107.471 211.926 107.213 213.766 107.213C215.936 107.213 217.721 107.508 219.119 108.096C220.554 108.685 221.657 109.457 222.43 110.414C223.239 111.334 223.81 112.364 224.141 113.504C224.472 114.645 224.637 115.767 224.637 116.871V135.248C224.637 135.616 224.527 135.91 224.306 136.131C224.085 136.352 223.791 136.462 223.423 136.462H222.485C222.117 136.462 221.823 136.352 221.602 136.131C221.381 135.91 221.271 135.616 221.271 135.248V132.654C220.83 133.316 220.204 133.979 219.395 134.641C218.585 135.303 217.537 135.873 216.249 136.352C214.998 136.793 213.416 137.014 211.503 137.014ZM212.055 133.813C213.747 133.813 215.292 133.445 216.691 132.709C218.089 131.973 219.192 130.851 220.002 129.343C220.848 127.798 221.271 125.866 221.271 123.548V121.672L214.152 122.665C211.135 123.07 208.854 123.769 207.309 124.762C205.764 125.756 204.991 127.007 204.991 128.515C204.991 129.729 205.341 130.723 206.04 131.495C206.739 132.268 207.622 132.856 208.689 133.261C209.792 133.629 210.914 133.813 212.055 133.813Z" fill="#F1F5F2"/>
<path d="M101.536 156.469C100.791 156.469 100.156 156.349 99.632 156.11C99.117 155.871 98.7215 155.563 98.4455 155.186C98.1696 154.809 98.0224 154.409 98.004 153.986C98.004 153.912 98.0316 153.848 98.0868 153.792C98.142 153.737 98.211 153.71 98.2938 153.71H98.5697C98.6617 153.71 98.7307 153.737 98.7766 153.792C98.8318 153.848 98.864 153.912 98.8732 153.986C98.91 154.243 99.025 154.501 99.2181 154.758C99.4113 155.007 99.6964 155.218 100.074 155.393C100.451 155.558 100.938 155.641 101.536 155.641C102.437 155.641 103.095 155.48 103.509 155.158C103.923 154.827 104.13 154.386 104.13 153.834C104.13 153.466 104.019 153.172 103.799 152.951C103.587 152.721 103.261 152.519 102.819 152.344C102.378 152.16 101.812 151.958 101.122 151.737C100.469 151.525 99.931 151.309 99.5079 151.088C99.0848 150.858 98.772 150.582 98.5697 150.261C98.3765 149.939 98.28 149.525 98.28 149.019C98.28 148.55 98.4041 148.131 98.6525 147.763C98.9008 147.386 99.2595 147.087 99.7286 146.867C100.207 146.646 100.786 146.535 101.467 146.535C102.01 146.535 102.483 146.609 102.888 146.756C103.293 146.903 103.628 147.101 103.895 147.349C104.162 147.589 104.364 147.851 104.502 148.136C104.64 148.412 104.714 148.683 104.723 148.95C104.723 149.014 104.7 149.079 104.654 149.143C104.608 149.198 104.534 149.226 104.433 149.226H104.157C104.111 149.226 104.052 149.207 103.978 149.171C103.914 149.134 103.872 149.06 103.854 148.95C103.799 148.49 103.555 148.113 103.123 147.819C102.699 147.515 102.148 147.363 101.467 147.363C100.786 147.363 100.23 147.497 99.7976 147.763C99.3653 148.03 99.1491 148.449 99.1491 149.019C99.1491 149.387 99.2457 149.69 99.4389 149.929C99.632 150.159 99.9355 150.366 100.349 150.55C100.763 150.725 101.297 150.918 101.95 151.13C102.64 151.35 103.21 151.571 103.661 151.792C104.111 152.013 104.447 152.284 104.668 152.606C104.889 152.919 104.999 153.328 104.999 153.834C104.999 154.395 104.856 154.873 104.571 155.269C104.295 155.655 103.9 155.954 103.385 156.165C102.87 156.368 102.253 156.469 101.536 156.469ZM109.544 156.469C108.882 156.469 108.326 156.331 107.875 156.055C107.434 155.779 107.093 155.402 106.854 154.924C106.624 154.446 106.5 153.912 106.482 153.323C106.472 153.185 106.468 152.992 106.468 152.744C106.468 152.496 106.472 152.302 106.482 152.164C106.5 151.567 106.624 151.033 106.854 150.564C107.093 150.086 107.434 149.709 107.875 149.433C108.326 149.157 108.882 149.019 109.544 149.019C110.207 149.019 110.759 149.157 111.2 149.433C111.651 149.709 111.991 150.086 112.221 150.564C112.46 151.033 112.589 151.567 112.607 152.164C112.616 152.302 112.621 152.496 112.621 152.744C112.621 152.992 112.616 153.185 112.607 153.323C112.589 153.912 112.46 154.446 112.221 154.924C111.991 155.402 111.651 155.779 111.2 156.055C110.759 156.331 110.207 156.469 109.544 156.469ZM109.544 155.669C110.188 155.669 110.713 155.462 111.117 155.048C111.522 154.634 111.738 154.036 111.766 153.254C111.775 153.116 111.779 152.946 111.779 152.744C111.779 152.542 111.775 152.371 111.766 152.233C111.738 151.442 111.522 150.845 111.117 150.44C110.713 150.026 110.188 149.819 109.544 149.819C108.901 149.819 108.376 150.026 107.972 150.44C107.567 150.845 107.351 151.442 107.323 152.233C107.314 152.371 107.309 152.542 107.309 152.744C107.309 152.946 107.314 153.116 107.323 153.254C107.351 154.036 107.567 154.634 107.972 155.048C108.376 155.462 108.901 155.669 109.544 155.669ZM115.391 156.331C115.299 156.331 115.226 156.303 115.17 156.248C115.115 156.193 115.088 156.12 115.088 156.028V149.957H113.86C113.768 149.957 113.694 149.929 113.639 149.874C113.584 149.819 113.556 149.745 113.556 149.654V149.46C113.556 149.368 113.584 149.295 113.639 149.24C113.694 149.184 113.768 149.157 113.86 149.157H115.088V148.37C115.088 147.957 115.143 147.579 115.253 147.239C115.373 146.899 115.58 146.627 115.874 146.425C116.178 146.223 116.61 146.122 117.171 146.122H117.888C117.98 146.122 118.054 146.149 118.109 146.204C118.164 146.26 118.192 146.333 118.192 146.425V146.618C118.192 146.71 118.164 146.784 118.109 146.839C118.054 146.894 117.98 146.922 117.888 146.922H117.171C116.683 146.922 116.352 147.055 116.178 147.322C116.012 147.579 115.929 147.952 115.929 148.439V149.157H117.75C117.842 149.157 117.916 149.184 117.971 149.24C118.026 149.295 118.054 149.368 118.054 149.46V149.654C118.054 149.745 118.026 149.819 117.971 149.874C117.916 149.929 117.842 149.957 117.75 149.957H115.929V156.028C115.929 156.12 115.902 156.193 115.846 156.248C115.791 156.303 115.718 156.331 115.626 156.331H115.391ZM121.798 156.331C121.319 156.331 120.942 156.23 120.666 156.028C120.39 155.825 120.197 155.549 120.087 155.2C119.976 154.85 119.921 154.459 119.921 154.027V149.957H118.845C118.753 149.957 118.68 149.929 118.624 149.874C118.569 149.819 118.542 149.745 118.542 149.654V149.46C118.542 149.368 118.569 149.295 118.624 149.24C118.68 149.184 118.753 149.157 118.845 149.157H119.921V146.839C119.921 146.747 119.949 146.673 120.004 146.618C120.059 146.563 120.133 146.535 120.225 146.535H120.459C120.551 146.535 120.625 146.563 120.68 146.618C120.735 146.673 120.763 146.747 120.763 146.839V149.157H122.474C122.566 149.157 122.639 149.184 122.694 149.24C122.75 149.295 122.777 149.368 122.777 149.46V149.654C122.777 149.745 122.75 149.819 122.694 149.874C122.639 149.929 122.566 149.957 122.474 149.957H120.763V153.972C120.763 154.459 120.841 154.841 120.997 155.117C121.163 155.393 121.453 155.531 121.867 155.531H122.612C122.704 155.531 122.777 155.558 122.832 155.614C122.888 155.669 122.915 155.742 122.915 155.834V156.028C122.915 156.12 122.888 156.193 122.832 156.248C122.777 156.303 122.704 156.331 122.612 156.331H121.798ZM131.347 156.469C130.51 156.469 129.825 156.308 129.292 155.986C128.767 155.655 128.377 155.209 128.119 154.648C127.861 154.087 127.719 153.448 127.691 152.73C127.682 152.353 127.678 151.948 127.678 151.516C127.678 151.084 127.682 150.67 127.691 150.274C127.719 149.557 127.861 148.918 128.119 148.357C128.377 147.786 128.767 147.34 129.292 147.018C129.825 146.696 130.51 146.535 131.347 146.535C132 146.535 132.557 146.627 133.017 146.811C133.477 146.995 133.849 147.239 134.134 147.543C134.429 147.837 134.645 148.159 134.783 148.508C134.93 148.849 135.013 149.184 135.031 149.516C135.04 149.598 135.013 149.667 134.948 149.723C134.893 149.768 134.824 149.791 134.741 149.791H134.465C134.392 149.791 134.327 149.773 134.272 149.736C134.217 149.69 134.18 149.612 134.162 149.502C133.987 148.683 133.656 148.122 133.169 147.819C132.69 147.515 132.083 147.363 131.347 147.363C130.51 147.363 129.844 147.602 129.347 148.081C128.859 148.55 128.597 149.304 128.56 150.343C128.533 151.098 128.533 151.87 128.56 152.661C128.597 153.701 128.859 154.459 129.347 154.938C129.844 155.407 130.51 155.641 131.347 155.641C132.083 155.641 132.69 155.489 133.169 155.186C133.656 154.882 133.987 154.321 134.162 153.503C134.18 153.392 134.217 153.319 134.272 153.282C134.327 153.236 134.392 153.213 134.465 153.213H134.741C134.824 153.213 134.893 153.241 134.948 153.296C135.013 153.342 135.04 153.406 135.031 153.489C135.013 153.82 134.93 154.16 134.783 154.51C134.645 154.85 134.429 155.172 134.134 155.476C133.849 155.77 133.477 156.009 133.017 156.193C132.557 156.377 132 156.469 131.347 156.469ZM139.617 156.469C138.954 156.469 138.398 156.331 137.947 156.055C137.506 155.779 137.165 155.402 136.926 154.924C136.696 154.446 136.572 153.912 136.554 153.323C136.545 153.185 136.54 152.992 136.54 152.744C136.54 152.496 136.545 152.302 136.554 152.164C136.572 151.567 136.696 151.033 136.926 150.564C137.165 150.086 137.506 149.709 137.947 149.433C138.398 149.157 138.954 149.019 139.617 149.019C140.279 149.019 140.831 149.157 141.272 149.433C141.723 149.709 142.063 150.086 142.293 150.564C142.532 151.033 142.661 151.567 142.679 152.164C142.689 152.302 142.693 152.496 142.693 152.744C142.693 152.992 142.689 153.185 142.679 153.323C142.661 153.912 142.532 154.446 142.293 154.924C142.063 155.402 141.723 155.779 141.272 156.055C140.831 156.331 140.279 156.469 139.617 156.469ZM139.617 155.669C140.26 155.669 140.785 155.462 141.189 155.048C141.594 154.634 141.81 154.036 141.838 153.254C141.847 153.116 141.852 152.946 141.852 152.744C141.852 152.542 141.847 152.371 141.838 152.233C141.81 151.442 141.594 150.845 141.189 150.44C140.785 150.026 140.26 149.819 139.617 149.819C138.973 149.819 138.448 150.026 138.044 150.44C137.639 150.845 137.423 151.442 137.395 152.233C137.386 152.371 137.382 152.542 137.382 152.744C137.382 152.946 137.386 153.116 137.395 153.254C137.423 154.036 137.639 154.634 138.044 155.048C138.448 155.462 138.973 155.669 139.617 155.669ZM147.172 156.469C146.638 156.469 146.183 156.372 145.806 156.179C145.438 155.986 145.139 155.729 144.909 155.407C144.679 155.085 144.509 154.726 144.399 154.331C144.298 153.935 144.238 153.535 144.219 153.13C144.21 152.992 144.206 152.864 144.206 152.744C144.206 152.624 144.21 152.496 144.219 152.358C144.238 151.953 144.298 151.553 144.399 151.157C144.509 150.762 144.679 150.403 144.909 150.081C145.139 149.759 145.438 149.502 145.806 149.309C146.183 149.115 146.638 149.019 147.172 149.019C147.742 149.019 148.211 149.125 148.579 149.336C148.956 149.548 149.26 149.805 149.49 150.109V146.839C149.49 146.747 149.517 146.673 149.572 146.618C149.628 146.563 149.701 146.535 149.793 146.535H150.028C150.12 146.535 150.193 146.563 150.248 146.618C150.304 146.673 150.331 146.747 150.331 146.839V156.028C150.331 156.12 150.304 156.193 150.248 156.248C150.193 156.303 150.12 156.331 150.028 156.331H149.793C149.701 156.331 149.628 156.303 149.572 156.248C149.517 156.193 149.49 156.12 149.49 156.028V155.379C149.26 155.692 148.956 155.954 148.579 156.165C148.211 156.368 147.742 156.469 147.172 156.469ZM147.255 155.669C147.779 155.669 148.202 155.545 148.524 155.296C148.846 155.048 149.085 154.74 149.241 154.372C149.398 153.995 149.48 153.618 149.49 153.241C149.499 153.103 149.503 152.923 149.503 152.703C149.503 152.482 149.499 152.302 149.49 152.164C149.48 151.797 149.393 151.433 149.228 151.075C149.071 150.716 148.832 150.417 148.51 150.178C148.188 149.939 147.77 149.819 147.255 149.819C146.721 149.819 146.293 149.939 145.972 150.178C145.659 150.417 145.433 150.73 145.295 151.116C145.158 151.502 145.079 151.916 145.061 152.358C145.052 152.615 145.052 152.873 145.061 153.13C145.079 153.572 145.158 153.986 145.295 154.372C145.433 154.758 145.659 155.071 145.972 155.31C146.293 155.549 146.721 155.669 147.255 155.669ZM155.244 156.469C154.352 156.469 153.643 156.179 153.119 155.6C152.595 155.011 152.296 154.243 152.222 153.296C152.213 153.158 152.209 152.974 152.209 152.744C152.209 152.514 152.213 152.33 152.222 152.192C152.268 151.567 152.416 151.015 152.664 150.537C152.912 150.058 153.253 149.686 153.685 149.419C154.126 149.152 154.646 149.019 155.244 149.019C155.888 149.019 156.435 149.161 156.886 149.447C157.336 149.732 157.681 150.141 157.92 150.674C158.169 151.208 158.293 151.843 158.293 152.578V152.785C158.293 152.877 158.261 152.951 158.196 153.006C158.141 153.061 158.068 153.089 157.976 153.089H153.064C153.064 153.089 153.064 153.107 153.064 153.144C153.064 153.181 153.064 153.208 153.064 153.227C153.082 153.641 153.179 154.036 153.354 154.413C153.529 154.781 153.777 155.085 154.099 155.324C154.421 155.554 154.802 155.669 155.244 155.669C155.639 155.669 155.966 155.609 156.223 155.489C156.49 155.37 156.702 155.241 156.858 155.103C157.014 154.956 157.116 154.846 157.162 154.772C157.244 154.652 157.309 154.583 157.355 154.565C157.401 154.538 157.474 154.524 157.576 154.524H157.796C157.879 154.524 157.948 154.551 158.003 154.606C158.068 154.652 158.095 154.717 158.086 154.8C158.077 154.928 158.003 155.089 157.865 155.283C157.736 155.466 157.548 155.65 157.3 155.834C157.06 156.018 156.766 156.17 156.417 156.29C156.067 156.409 155.676 156.469 155.244 156.469ZM153.064 152.316H157.451V152.261C157.451 151.801 157.364 151.387 157.189 151.019C157.014 150.651 156.762 150.362 156.43 150.15C156.099 149.929 155.704 149.819 155.244 149.819C154.784 149.819 154.389 149.929 154.057 150.15C153.735 150.362 153.487 150.651 153.312 151.019C153.147 151.387 153.064 151.801 153.064 152.261V152.316Z" fill="#F1F5F2"/>
</g>
<defs>
<clipPath id="clip0_417_10960">
<rect width="245.272" height="245.272" rx="122.636" fill="white"/>
</clipPath>
<clipPath id="clip1_417_10960">
<rect x="6.13281" y="122.636" width="61.318" height="61.318" rx="1.53295" transform="rotate(-45 6.13281 122.636)" fill="white"/>
</clipPath>
</defs>
</svg>
