<svg version="1.1" id="Layer_1" xmlns="http://www.w3.org/2000/svg" xmlns:xlink="http://www.w3.org/1999/xlink" x="0px" y="0px"
	 width="100%" viewBox="0 0 386 246" enable-background="new 0 0 386 246" xml:space="preserve">
<path fill="none" opacity="1.000000" stroke="none" 
	d="
M215.000000,247.000000 
	C144.666687,247.000000 74.833313,246.967957 5.000240,247.096451 
	C1.575786,247.102753 0.898526,246.424423 0.903895,242.999908 
	C1.028283,163.666794 1.028265,84.333397 0.903924,5.000287 
	C0.898557,1.576203 1.575785,0.901812 4.999947,0.904884 
	C130.999817,1.017895 256.999817,1.017881 382.999664,0.904937 
	C386.423004,0.901868 387.101501,1.575008 387.096130,4.999897 
	C386.971710,84.333015 386.971741,163.666412 387.096039,242.999527 
	C387.101410,246.423187 386.425781,247.105621 383.000092,247.097214 
	C327.166992,246.960052 271.333435,247.000000 215.000000,247.000000 
z"/>
<path fill="    #9ca3af" opacity="1.000000" stroke="none" 
	d="
M67.974655,185.994934 
	C67.974709,144.225067 67.974709,102.954453 67.974709,60.527893 
	C106.865715,90.433800 144.975311,119.738838 183.999847,149.747437 
	C183.999847,140.502945 183.999542,132.419250 183.999908,124.335571 
	C184.000305,116.006866 184.081848,107.676933 183.954102,99.350204 
	C183.914688,96.782364 184.674088,95.815338 187.336960,95.883949 
	C193.496109,96.042633 199.663269,96.003548 205.824753,95.899963 
	C208.112045,95.861519 209.072250,96.529297 209.067947,98.988075 
	C209.009262,132.462646 209.028458,165.937347 209.028458,200.770645 
	C170.139450,170.910965 132.034515,141.653320 93.773964,112.276184 
	C92.535378,114.525009 93.031227,116.366081 93.028519,118.110931 
	C92.988136,144.096436 92.923973,170.082458 93.081169,196.067062 
	C93.104218,199.876450 92.275879,201.385971 88.190125,201.088440 
	C83.053589,200.714371 77.857368,200.786652 72.709320,201.071533 
	C69.129173,201.269623 67.483627,200.429520 67.903603,196.480743 
	C68.253952,193.186630 67.974907,189.825562 67.974655,185.994934 
z"/>
<path fill="#34D299" opacity="1.000000" stroke="none" 
	d="
M242.965118,141.999146 
	C242.968536,146.662231 242.945160,150.825745 242.979279,154.988785 
	C243.079391,167.206589 250.828903,175.353821 263.167786,175.739609 
	C272.484833,176.030930 281.819794,175.958908 291.141907,175.784943 
	C295.338287,175.706635 297.296997,177.048111 297.060455,181.506622 
	C296.796051,186.488815 296.927917,191.496094 297.003632,196.490723 
	C297.048523,199.449966 295.672455,200.783401 292.794220,200.746735 
	C280.316406,200.587753 267.797607,201.588669 255.373596,199.855270 
	C234.962128,197.007401 218.185776,178.290466 218.049210,157.809952 
	C217.844894,127.169426 218.070938,96.526131 217.911880,65.885063 
	C217.887634,61.211391 219.605896,59.671352 224.060135,59.944126 
	C228.373795,60.208290 232.733093,60.240688 237.041580,59.937447 
	C241.731812,59.607342 243.046417,61.617752 243.021744,66.060822 
	C242.882034,91.206337 242.960464,116.353058 242.965118,141.999146 
z"/>
<path fill="#34D399" opacity="1.000000" stroke="none" 
	d="
M197.973938,85.012070 
	C183.992706,85.011818 183.932709,85.011467 184.010422,71.613319 
	C184.086914,58.427090 182.455399,60.098297 195.773590,60.018169 
	C209.005432,59.938557 209.005798,60.000637 209.006104,73.151283 
	C209.006104,73.649757 209.009018,74.148247 209.005676,74.646698 
	C208.928986,86.116203 210.034744,84.924187 197.973938,85.012070 
z"/>
<path fill="#9ca3af" opacity="1.000000" stroke="none" 
	d="
M333.535431,200.510468 
	C326.352692,200.885101 319.523499,200.828796 312.703400,201.051117 
	C309.798248,201.145813 308.983307,200.052109 309.060028,197.294067 
	C309.222076,191.468964 309.203583,185.633957 309.065094,179.807617 
	C309.002533,177.176804 309.563171,175.840591 312.599457,175.941864 
	C318.588989,176.141678 324.591400,176.079269 330.585266,175.961365 
	C333.005890,175.913742 334.264404,176.428864 334.174988,179.226395 
	C333.951782,186.210892 333.970825,193.203156 333.535431,200.510468 
z"/>
</svg>